# AST/ASF file generated using VICON BodyLanguage
# -----------------------------------------------
:version 1.10
:name VICON
:units
  mass 1.0
  length 0.45
  angle deg
:documentation
   .ast/.asf automatically generated from VICON data using
   VICON BodyBuilder and BodyLanguage model FoxedUp or BRILLIANT.MOD
:root
   order TX TY TZ RX RY RZ
   axis XYZ
   position 0 0 0  
   orientation 0 0 0 
:bonedata
  begin
     id 1 
     name lhipjoint
     direction 0.528046 -0.759594 0.379717 
     length 2.39752 
     axis 0 0 0  XYZ
  end
  begin
     id 2 
     name lfemur
     direction 0.34202 -0.939693 0  
     length 7.31175  
     axis 0 0 20  XYZ
    dof rx ry rz
    limits (-160.0 20.0)
           (-70.0 70.0)
           (-60.0 70.0)
  end
  begin
     id 3 
     name ltibia
     direction 0.34202 -0.939693 0   
     length 7.52482   
     axis 0 0 20   XYZ
    dof rx
    limits (-10.0 170.0)
  end
  begin
     id 4 
     name lfoot
     direction 0.0675379 -0.185559 0.980309   
     length 2.00961   
     axis -90 7.62852e-016 20   XYZ
    dof rx rz
    limits (-45.0 90.0)
           (-70.0 20.0)
  end
  begin
     id 5 
     name ltoes
     direction 1.5352e-011 -4.22286e-011 1   
     length 1.01383   
     axis -90 7.62852e-016 20   XYZ
    dof rx
    limits (-90.0 20.0)
  end
  begin
     id 6 
     name rhipjoint
     direction -0.510274 -0.769251 0.384544   
     length 2.36742  
     axis 0 0 0  XYZ 
  end
  begin
     id 7 
     name rfemur
     direction -0.34202 -0.939693 0   
     length 7.45325   
     axis 0 0 -20   XYZ
    dof rx ry rz
    limits (-160.0 20.0)
           (-70.0 70.0)
           (-70.0 60.0)
  end
  begin
     id 8 
     name rtibia
     direction -0.34202 -0.939693 0   
     length 7.49587   
     axis 0 0 -20   XYZ
    dof rx
    limits (-10.0 170.0)
 end
 begin
     id 9 
     name rfoot
     direction -0.106475 -0.292536 0.950308   
     length 2.20898  
     axis -90 -7.62852e-016 -20   XYZ
    dof rx rz
    limits (-45.0 90.0)
           (-20.0 70.0)
  end
  begin
     id 10 
     name rtoes
     direction -1.53597e-011 -4.22023e-011 1   
     length 1.10065   
     axis -90 -7.62852e-016 -20   XYZ
    dof rx
    limits (-90.0 20.0)
  end
  begin
     id 11 
     name lowerback
     direction 0.0260024 0.998026 -0.0571652   
     length 2.11214   
     axis 0 0 0   XYZ
    dof rx ry rz
    limits (-20.0 45.0)
           (-30.0 30.0)
           (-30.0 30.0)
  end
  begin
     id 12 
     name upperback
     direction 0.0216202 0.999542 -0.0211766   
     length 2.11689   
     axis 0 0 0   XYZ
    dof rx ry rz
    limits (-20.0 45.0)
           (-30.0 30.0)
           (-30.0 30.0)
  end
  begin
     id 13 
     name thorax
     direction 0.00883312 0.999944 0.00589057   
     length 2.11821   
     axis 0 0 0   XYZ
    dof rx ry rz
    limits (-20.0 45.0)
           (-30.0 30.0)
           (-30.0 30.0)
  end
  begin
     id 14 
     name lowerneck
     direction -0.059386 0.994433 0.0870401   
     length 1.81176   
     axis 0 0 0   XYZ
    dof rx ry rz
    limits (-20.0 45.0)
           (-30.0 30.0)
           (-30.0 30.0)
  end
  begin
     id 15 
     name upperneck
     direction 0.0506457 0.97328 -0.223967   
     length 1.82382   
     axis 0 0 0   XYZ
    dof rx ry rz
    limits (-20.0 45.0)
           (-30.0 30.0)
           (-30.0 30.0)
  end
  begin
     id 16
     name head
     direction 0.0205902 0.996147 -0.0852487  
     length 1.84805  
     axis 0 0 0   XYZ
    dof rx ry rz
    limits (-20.0 45.0)
           (-30.0 30.0)
           (-30.0 30.0)
  end
  begin
     id 17 
     name lclavicle
     direction 0.949493 0.303881 -0.0782325  
     length 3.60584  
     axis 0 0 0   XYZ
    dof ry rz
    limits (-20.0 10.0)
           (0.0 20.0)
  end
  begin
     id 18 
     name lhumerus
     direction 1 -4.48965e-011 1.48782e-027   
     length 4.95681   
     axis 180 -30 -90   XYZ
    dof rx ry rz
    limits (-60.0 90.0)
           (-90.0 90.0)
           (-90.0 90.0)
  end
  begin
     id 19
     name lradius
     direction 1 -4.48952e-011 2.06528e-027   
     length 3.40915   
     axis 180 -30 -90   XYZ
    dof rx
    limits (-10.0 170.0)
  end
  begin
     id 20
     name lwrist
     direction 1 -4.48964e-011 1.28021e-027   
     length 1.70457   
     axis -1.61767e-015 90 90   XYZ
    dof ry
    limits (-180.0 0.0)
 end
  begin
     id 21 
     name lhand
     direction 1 -4.49094e-011 2.54887e-027   
     length 0.616403   
     axis -1.63363e-015 90 90   XYZ
    dof rx rz
    limits (-90.0 90.0)
           (-45.0 45.0)
  end
  begin
     id 22 
     name lfingers
     direction 1 -4.49002e-011 5.11407e-027   
     length 0.49696   
     axis -3.26723e-015 90 90   XYZ
    dof rx
    limits (0.0 90.0)
  end
  begin
     id 23
     name lthumb
     direction 0.707107 -6.34998e-011 0.707107   
     length 0.713539   
     axis -90 45 -2.25915e-014   XYZ
    dof rx rz
    limits (-45.0 45.0)
           (-45.0 45.0)
  end
  begin
     id 24 
     name rclavicle
     direction -0.937751 0.334612 -0.0930482   
     length 3.46287  
     axis 0 0 0   XYZ 
    dof ry rz
    limits (-10.0 20.0)
           (-20.0 0.0)
  end
  begin
     id 25 
     name rhumerus
     direction -1 -4.48962e-011 3.59972e-027  
     length 5.352   
     axis 180 30 90   XYZ
    dof rx ry rz
    limits (-90.0 60.0)
           (-90.0 90.0)
           (-90.0 90.0)
  end
  begin
     id 26 
     name rradius
     direction -1 -4.48987e-011 -3.76925e-027   
     length 3.43721   
     axis 180 30 90   XYZ
    dof rx
    limits (-10.0 170.0)
  end
  begin
     id 27 
     name rwrist
     direction -1 -4.48943e-011 1.28112e-027   
     length 1.7186   
     axis -1.61767e-015 -90 -90   XYZ
    dof ry
    limits (-180.0 0.0)
  end
  begin
     id 28
     name rhand
     direction -1 -4.49027e-011 2.55483e-027   
     length 0.72009   
     axis -1.63363e-015 -90 -90   XYZ
    dof rx rz
    limits (-90.0 90.0)
           (-45.0 45.0)
  end
  begin
     id 29
     name rfingers
     direction -1 -4.48827e-011 5.14506e-027   
     length 0.580555   
     axis -3.26723e-015 -90 -90   XYZ
    dof rx
    limits (0.0 90.0)
  end
  begin
     id 30
     name rthumb
     direction -0.707107 -6.34936e-011 0.707107   
     length 0.833564   
     axis -90 -45 2.25915e-014   XYZ
    dof rx rz
    limits (-45.0 45.0)
           (-45.0 45.0)
  end
:hierarchy
  begin
    root lhipjoint rhipjoint lowerback
    lhipjoint lfemur
    lfemur ltibia
    ltibia lfoot
    lfoot ltoes
    rhipjoint rfemur
    rfemur rtibia
    rtibia rfoot
    rfoot rtoes
    lowerback upperback
    upperback thorax
    thorax lowerneck lclavicle rclavicle
    lowerneck upperneck
    upperneck head
    lclavicle lhumerus
    lhumerus lradius
    lradius lwrist
    lwrist lhand lthumb
    lhand lfingers
    rclavicle rhumerus
    rhumerus rradius
    rradius rwrist
    rwrist rhand rthumb
    rhand rfingers
  end

#!OML:ASF H:\Terrain\Patient Classification 1\Terrain2\Thursday\justin.ASF
:FULLY-SPECIFIED
:DEGREES
480
root 4.93082 18.0433 21.8484 220.852 82.9062 222.296
lowerback 7.65179 -0.526213 5.05561
upperback 2.4912 -0.0278173 4.65052
thorax -1.7175 0.0616824 1.97228
lowerneck -15.0977 -2.45902 -8.46556
upperneck 35.7236 -0.0878598 1.4004
head 15.0341 -0.530308 2.18568
rclavicle 3.77691e-015 5.56597e-015
rhumerus -33.7094 -11.2866 -76.6375
rradius 24.4241
rwrist -8.88964
rhand -18.8407 12.9097
rfingers 7.12502
rthumb 7.45894 -16.9388
lclavicle 3.77691e-015 5.56597e-015
lhumerus -36.3044 4.71906 85.1845
lradius 28.0645
lwrist -4.11486
lhand -16.0635 20.9554
lfingers 7.12502
lthumb 10.1389 50.6911
rfemur -13.7412 -5.32006 28.0539
rtibia 20.0636
rfoot -4.38057 3.76831
rtoes 23.0882
lfemur -16.7761 1.65927 -12.1503
ltibia 73.7241
lfoot 5.36277 -11.3491
ltoes -5.14539
481
root 5.0306 18.0566 21.8717 221.171 82.5162 222.709
lowerback 7.79732 -0.446289 5.17287
upperback 2.53117 0.109414 4.777
thorax -1.75674 0.133661 2.02673
lowerneck -14.9811 -2.59095 -8.43886
upperneck 35.7083 -0.316143 1.44927
head 15.0139 -0.612944 2.16308
rclavicle 8.44835e-015 1.11319e-014
rhumerus -33.3988 -10.8916 -76.7171
rradius 24.6005
rwrist -9.21787
rhand -19.2446 12.9067
rfingers 7.12502
rthumb 7.06907 -16.9553
lclavicle 8.44835e-015 1.11319e-014
lhumerus -36.1501 4.89324 85.1052
lradius 28.0633
lwrist -4.03055
lhand -16.1117 20.6508
lfingers 7.12502
lthumb 10.0924 50.3887
rfemur -12.8775 -5.31457 28.475
rtibia 19.1998
rfoot -4.21863 3.38748
rtoes 23.4878
lfemur -19.221 2.38231 -11.6519
ltibia 77.492
lfoot 2.48738 -10.1249
ltoes -10.8559
482
root 5.12663 18.069 21.8896 220.889 82.2013 222.597
lowerback 8.04502 -0.371589 5.43062
upperback 2.58813 0.249926 4.72831
thorax -1.83341 0.205106 1.82002
lowerneck -15.0138 -2.76379 -8.24024
upperneck 35.7516 -0.602731 1.3819
head 15.0577 -0.716231 2.05287
rclavicle -1.39149e-015 3.89618e-014
rhumerus -33.1281 -11.0818 -76.802
rradius 24.679
rwrist -8.90512
rhand -19.3554 12.6949
rfingers 7.12502
rthumb 6.9621 -17.1706
lclavicle -1.39149e-015 3.89618e-014
lhumerus -35.993 4.77685 84.97
lradius 28.1176
lwrist -3.95959
lhand -15.6999 20.4766
lfingers 7.12502
lthumb 10.4897 50.1949
rfemur -11.9906 -5.37678 28.7511
rtibia 18.4648
rfoot -4.22878 3.14163
rtoes 23.4984
lfemur -21.628 2.98218 -11.2791
ltibia 81.1486
lfoot 0.43417 -9.12108
ltoes -12.0611
483
root 5.22713 18.1031 21.9079 220.336 81.8932 222.235
lowerback 8.27652 -0.333831 5.72648
upperback 2.64519 0.342813 4.654
thorax -1.89948 0.252658 1.56935
lowerneck -15.018 -2.88414 -8.23738
upperneck 35.7577 -0.813448 1.47384
head 15.0746 -0.791551 2.05567
rclavicle 1.56046e-014 -7.95139e-016
rhumerus -32.815 -11.4218 -76.8126
rradius 24.6256
rwrist -8.38888
rhand -19.1152 12.7544
rfingers 7.12502
rthumb 7.19397 -17.1033
lclavicle 1.56046e-014 -7.95139e-016
lhumerus -35.9816 4.78256 84.8206
lradius 28.4126
lwrist -3.74145
lhand -15.6773 21.0126
lfingers 7.12502
lthumb 10.5114 50.7297
rfemur -11.0599 -5.54033 28.9836
rtibia 17.7828
rfoot -4.31559 3.01962
rtoes 22.9046
lfemur -24.2055 3.02688 -10.7215
ltibia 84.7617
lfoot 0.229411 -8.54685
ltoes -0.73779
484
root 5.32746 18.1145 21.9232 219.973 81.4687 222.054
lowerback 8.42874 -0.330425 6.06789
upperback 2.69385 0.39404 4.6645
thorax -1.93019 0.281415 1.38543
lowerneck -14.9194 -2.97875 -8.47253
upperneck 35.7654 -1.00374 1.80537
head 15.0717 -0.855522 2.20513
rclavicle -3.37934e-015 -1.59028e-015
rhumerus -32.476 -11.4878 -76.8075
rradius 24.6383
rwrist -8.32704
rhand -19.058 12.8938
rfingers 7.12502
rthumb 7.24919 -16.962
lclavicle -3.37934e-015 -1.59028e-015
lhumerus -35.8575 4.88177 84.672
lradius 28.5347
lwrist -3.46139
lhand -15.8139 21.1626
lfingers 7.12502
lthumb 10.3797 50.8865
rfemur -10.0967 -5.86935 29.2981
rtibia 16.9815
rfoot -4.21763 2.91661
rtoes 22.7758
lfemur -26.3492 3.99531 -10.6141
ltibia 87.9516
lfoot -2.14621 -8.02895
ltoes -12.3371
485
root 5.4237 18.1328 21.9408 220.121 81.0354 222.401
lowerback 8.57649 -0.370057 6.34569
upperback 2.80625 0.386938 4.76865
thorax -1.89419 0.285615 1.34033
lowerneck -14.8125 -3.03372 -8.66254
upperneck 35.689 -1.10202 1.98122
head 15.021 -0.896661 2.29415
rclavicle 9.74045e-015 -3.02153e-014
rhumerus -31.9924 -11.1342 -76.9127
rradius 24.7822
rwrist -8.59562
rhand -19.3904 12.8224
rfingers 7.12502
rthumb 6.92829 -17.0442
lclavicle 9.74045e-015 -3.02153e-014
lhumerus -35.5994 5.04115 84.6003
lradius 28.5325
lwrist -2.91609
lhand -15.7904 20.8091
lfingers 7.12502
lthumb 10.4024 50.5317
rfemur -9.01274 -6.09386 29.6736
rtibia 15.9314
rfoot -3.99266 2.73869
rtoes 23.3021
lfemur -28.6616 4.51929 -10.2984
ltibia 91.2179
lfoot -3.71431 -7.58855
ltoes -12.5132
486
root 5.51226 18.1426 21.9579 221.076 80.533 223.605
lowerback 8.84667 -0.43191 6.72167
upperback 2.94044 0.380084 4.95704
thorax -1.90315 0.292535 1.32911
lowerneck -14.7113 -3.07853 -8.86523
upperneck 35.4875 -1.1549 2.04735
head 14.9101 -0.936305 2.34283
rclavicle 8.94531e-015 1.27222e-014
rhumerus -31.5063 -10.7554 -76.9496
rradius 25.0623
rwrist -8.90152
rhand -19.7301 12.8239
rfingers 7.12502
rthumb 6.6004 -17.0532
lclavicle 8.94531e-015 1.27222e-014
lhumerus -35.442 5.25233 84.7325
lradius 28.7494
lwrist -1.86123
lhand -16.5015 20.6544
lfingers 7.12502
lthumb 9.71628 50.4103
rfemur -7.97859 -6.36141 30.1969
rtibia 14.9609
rfoot -3.70242 2.61523
rtoes 24.8462
lfemur -31.2865 4.67817 -9.70778
ltibia 94.604
lfoot -4.64832 -7.60983
ltoes -19.0921
487
root 5.59782 18.1444 21.9646 222.543 79.9903 225.314
lowerback 9.13815 -0.47034 7.42214
upperback 3.01948 0.437662 5.05374
thorax -1.97538 0.32924 1.0363
lowerneck -14.6075 -3.18562 -9.10567
upperneck 35.4266 -1.33819 2.28743
head 14.8763 -1.0121 2.45341
rclavicle -2.5842e-015 5.56597e-015
rhumerus -31.2056 -10.5086 -77.0217
rradius 25.4437
rwrist -9.30742
rhand -19.668 12.7095
rfingers 7.12502
rthumb 6.66028 -17.1658
lclavicle -2.5842e-015 5.56597e-015
lhumerus -35.3612 5.46498 84.6793
lradius 29.0466
lwrist -1.35171
lhand -17.1056 20.5008
lfingers 7.12502
lthumb 9.13342 50.283
rfemur -6.71379 -6.74898 30.7928
rtibia 13.4806
rfoot -3.13063 2.74535
rtoes 26.3246
lfemur -33.9563 4.89628 -9.0692
ltibia 97.9841
lfoot -5.8994 -7.4384
ltoes -15.8163
488
root 5.68738 18.1605 21.9763 223.818 79.6934 226.829
lowerback 9.386 -0.409113 8.00266
upperback 3.08095 0.60151 4.99211
thorax -2.03457 0.414291 0.633339
lowerneck -14.482 -3.31893 -9.02547
upperneck 35.5862 -1.58392 2.38443
head 14.9401 -1.08878 2.44462
rclavicle 2.98177e-016 5.08889e-014
rhumerus -31.0274 -10.2909 -77.2531
rradius 25.869
rwrist -9.64511
rhand -19.5726 12.2729
rfingers 7.12502
rthumb 6.75243 -17.5995
lclavicle 2.98177e-016 5.08889e-014
lhumerus -35.2761 5.42332 84.445
lradius 29.3158
lwrist -1.24391
lhand -17.2777 20.3789
lfingers 7.12502
lthumb 8.96733 50.1684
rfemur -5.20497 -7.00875 31.2462
rtibia 11.6151
rfoot -2.55431 2.96502
rtoes 25.4582
lfemur -36.3834 5.68678 -8.63318
ltibia 101.111
lfoot -7.73119 -7.36696
ltoes -16.5992
489
root 5.77728 18.1605 21.9998 225.002 79.5138 228.221
lowerback 9.58992 -0.326422 8.18547
upperback 3.20602 0.757875 5.08684
thorax -2.00804 0.500537 0.613939
lowerneck -14.607 -3.41363 -9.04232
upperneck 35.7539 -1.66386 2.31861
head 15.057 -1.13366 2.41111
rclavicle 5.76476e-015 3.26007e-014
rhumerus -30.669 -9.67501 -77.4179
rradius 26.3839
rwrist -10.2114
rhand -19.6798 11.9938
rfingers 7.12502
rthumb 6.64889 -17.8818
lclavicle 5.76476e-015 3.26007e-014
lhumerus -35.0689 5.1843 84.5846
lradius 29.533
lwrist -0.587471
lhand -17.4807 20.3489
lfingers 7.12502
lthumb 8.77151 50.1467
rfemur -3.76697 -7.09272 31.6601
rtibia 9.83889
rfoot -1.92485 2.99507
rtoes 26.1448
lfemur -38.9584 6.99566 -8.12089
ltibia 104.179
lfoot -9.55827 -8.20487
ltoes -16.9129
490
root 5.86828 18.1632 22.0258 226.579 79.3266 230.01
lowerback 9.84178 -0.229765 8.23437
upperback 3.33657 0.937489 5.33007
thorax -2.00593 0.600074 0.82055
lowerneck -14.8455 -3.48862 -9.24932
upperneck 35.8394 -1.66681 2.28266
head 15.1612 -1.16993 2.43313
rclavicle -3.29983e-014 -1.11319e-014
rhumerus -30.2964 -8.93967 -77.4602
rradius 26.9452
rwrist -10.9875
rhand -20.2334 12.1759
rfingers 7.12502
rthumb 6.11446 -17.7158
lclavicle -3.29983e-014 -1.11319e-014
lhumerus -34.8743 5.10078 84.963
lradius 29.8038
lwrist 0.216889
lhand -17.9299 20.3882
lfingers 7.12502
lthumb 8.33803 50.2036
rfemur -2.62209 -7.12468 32.1566
rtibia 8.67733
rfoot -1.62017 3.05951
rtoes 26.5357
lfemur -41.5089 8.32199 -7.53609
ltibia 107.017
lfoot -11.0959 -9.18247
ltoes -15.9194
